<svg id="visual" viewBox="0 0 900 600" width="900" height="600" xmlns="http://www.w3.org/2000/svg" xmlns:xlink="http://www.w3.org/1999/xlink" version="1.1"><rect width="900" height="600" fill="#000000"></rect><g><g transform="translate(692 348)"><path d="M0 -19.4L13.7 -13.7L19.4 0L13.7 13.7L0 19.4L-13.7 13.7L-19.4 0L-13.7 -13.7Z" fill="none" stroke="#00e07f" stroke-width="1.0"></path></g><g transform="translate(42 196)"><path d="M0 -12L8.5 -8.5L12 0L8.5 8.5L0 12L-8.5 8.5L-12 0L-8.5 -8.5Z" fill="none" stroke="#00e07f" stroke-width="1.0"></path></g><g transform="translate(889 270)"><path d="M0 -12L8.5 -8.5L12 0L8.5 8.5L0 12L-8.5 8.5L-12 0L-8.5 -8.5Z" fill="none" stroke="#00e07f" stroke-width="1.0"></path></g><g transform="translate(8 242)"><path d="M0 -9L6.4 -6.4L9 0L6.4 6.4L0 9L-6.4 6.4L-9 0L-6.4 -6.4Z" stroke="#00e07f" fill="none" stroke-width="1.0"></path></g><g transform="translate(345 185)"><path d="M0 -13L9.2 -9.2L13 0L9.2 9.2L0 13L-9.2 9.2L-13 0L-9.2 -9.2Z" stroke="#00e07f" fill="none" stroke-width="1.0"></path></g><g transform="translate(134 500)"><path d="M0 -18L12.7 -12.7L18 0L12.7 12.7L0 18L-12.7 12.7L-18 0L-12.7 -12.7Z" stroke="#00e07f" fill="none" stroke-width="1.0"></path></g><g transform="translate(467 416)"><path d="M0 -15L10.6 -10.6L15 0L10.6 10.6L0 15L-10.6 10.6L-15 0L-10.6 -10.6Z" stroke="#00e07f" fill="none" stroke-width="1.0"></path></g><g transform="translate(691 515)"><path d="M0 -4L2.8 -2.8L4 0L2.8 2.8L0 4L-2.8 2.8L-4 0L-2.8 -2.8Z" stroke="#00e07f" fill="none" stroke-width="1.0"></path></g><g transform="translate(865 328)"><path d="M0 -10L7.1 -7.1L10 0L7.1 7.1L0 10L-7.1 7.1L-10 0L-7.1 -7.1Z" stroke="#00e07f" fill="none" stroke-width="1.0"></path></g><g transform="translate(136 211)"><path d="M0 -11L7.8 -7.8L11 0L7.8 7.8L0 11L-7.8 7.8L-11 0L-7.8 -7.8Z" stroke="#00e07f" fill="none" stroke-width="1.0"></path></g><g transform="translate(830 528)"><path d="M0 -15L10.6 -10.6L15 0L10.6 10.6L0 15L-10.6 10.6L-15 0L-10.6 -10.6Z" stroke="#00e07f" fill="none" stroke-width="1.0"></path></g><g transform="translate(113 404)"><path d="M0 -9L6.4 -6.4L9 0L6.4 6.4L0 9L-6.4 6.4L-9 0L-6.4 -6.4Z" stroke="#00e07f" fill="none" stroke-width="1.0"></path></g><g transform="translate(109 163)"><path d="M0 -8L5.7 -5.7L8 0L5.7 5.7L0 8L-5.7 5.7L-8 0L-5.7 -5.7Z" stroke="#00e07f" fill="none" stroke-width="1.0"></path></g><g transform="translate(457 310)"><path d="M0 -5L3.5 -3.5L5 0L3.5 3.5L0 5L-3.5 3.5L-5 0L-3.5 -3.5Z" stroke="#00e07f" fill="none" stroke-width="1.0"></path></g><g transform="translate(635 109)"><path d="M0 -7L4.9 -4.9L7 0L4.9 4.9L0 7L-4.9 4.9L-7 0L-4.9 -4.9Z" stroke="#00e07f" fill="none" stroke-width="1.0"></path></g><g transform="translate(366 236)"><path d="M0 -14L9.9 -9.9L14 0L9.9 9.9L0 14L-9.9 9.9L-14 0L-9.9 -9.9Z" stroke="#00e07f" fill="none" stroke-width="1.0"></path></g><g transform="translate(588 114)"><path d="M0 -4L2.8 -2.8L4 0L2.8 2.8L0 4L-2.8 2.8L-4 0L-2.8 -2.8Z" stroke="#00e07f" fill="none" stroke-width="1.0"></path></g><g transform="translate(177 311)"><path d="M0 -7L4.9 -4.9L7 0L4.9 4.9L0 7L-4.9 4.9L-7 0L-4.9 -4.9Z" stroke="#00e07f" fill="none" stroke-width="1.0"></path></g><g transform="translate(253 398)"><path d="M0 -17L12 -12L17 0L12 12L0 17L-12 12L-17 0L-12 -12Z" stroke="#00e07f" fill="none" stroke-width="1.0"></path></g><g transform="translate(393 77)"><path d="M0 -11L7.8 -7.8L11 0L7.8 7.8L0 11L-7.8 7.8L-11 0L-7.8 -7.8Z" stroke="#00e07f" fill="none" stroke-width="1.0"></path></g><g transform="translate(66 142)"><path d="M0 -7L4.9 -4.9L7 0L4.9 4.9L0 7L-4.9 4.9L-7 0L-4.9 -4.9Z" stroke="#00e07f" fill="none" stroke-width="1.0"></path></g><g transform="translate(177 170)"><path d="M0 -8L5.7 -5.7L8 0L5.7 5.7L0 8L-5.7 5.7L-8 0L-5.7 -5.7Z" stroke="#00e07f" fill="none" stroke-width="1.0"></path></g><g transform="translate(534 273)"><path d="M0 -11L7.8 -7.8L11 0L7.8 7.8L0 11L-7.8 7.8L-11 0L-7.8 -7.8Z" stroke="#00e07f" fill="none" stroke-width="1.0"></path></g><g transform="translate(523 19)"><path d="M0 -9L6.4 -6.4L9 0L6.4 6.4L0 9L-6.4 6.4L-9 0L-6.4 -6.4Z" stroke="#00e07f" fill="none" stroke-width="1.0"></path></g><g transform="translate(895 443)"><path d="M0 -6L4.2 -4.2L6 0L4.2 4.2L0 6L-4.2 4.2L-6 0L-4.2 -4.2Z" stroke="#00e07f" fill="none" stroke-width="1.0"></path></g><g transform="translate(109 253)"><path d="M0 -15L10.6 -10.6L15 0L10.6 10.6L0 15L-10.6 10.6L-15 0L-10.6 -10.6Z" stroke="#00e07f" fill="none" stroke-width="1.0"></path></g><g transform="translate(324 557)"><path d="M0 -7L4.9 -4.9L7 0L4.9 4.9L0 7L-4.9 4.9L-7 0L-4.9 -4.9Z" stroke="#00e07f" fill="none" stroke-width="1.0"></path></g><g transform="translate(498 346)"><path d="M0 -18L12.7 -12.7L18 0L12.7 12.7L0 18L-12.7 12.7L-18 0L-12.7 -12.7Z" stroke="#00e07f" fill="none" stroke-width="1.0"></path></g><g transform="translate(291 172)"><path d="M0 -18L12.7 -12.7L18 0L12.7 12.7L0 18L-12.7 12.7L-18 0L-12.7 -12.7Z" stroke="#00e07f" fill="none" stroke-width="1.0"></path></g><g transform="translate(574 539)"><path d="M0 -4L2.8 -2.8L4 0L2.8 2.8L0 4L-2.8 2.8L-4 0L-2.8 -2.8Z" stroke="#00e07f" fill="none" stroke-width="1.0"></path></g><g transform="translate(743 305)"><path d="M0 -17L12 -12L17 0L12 12L0 17L-12 12L-17 0L-12 -12Z" stroke="#00e07f" fill="none" stroke-width="1.0"></path></g><g transform="translate(748 47)"><path d="M0 -12L8.5 -8.5L12 0L8.5 8.5L0 12L-8.5 8.5L-12 0L-8.5 -8.5Z" stroke="#00e07f" fill="none" stroke-width="1.0"></path></g><g transform="translate(481 120)"><path d="M0 -6L4.2 -4.2L6 0L4.2 4.2L0 6L-4.2 4.2L-6 0L-4.2 -4.2Z" stroke="#00e07f" fill="none" stroke-width="1.0"></path></g><g transform="translate(683 195)"><path d="M0 -12L8.5 -8.5L12 0L8.5 8.5L0 12L-8.5 8.5L-12 0L-8.5 -8.5Z" stroke="#00e07f" fill="none" stroke-width="1.0"></path></g><g transform="translate(280 236)"><path d="M0 -5L3.5 -3.5L5 0L3.5 3.5L0 5L-3.5 3.5L-5 0L-3.5 -3.5Z" stroke="#00e07f" fill="none" stroke-width="1.0"></path></g><g transform="translate(664 441)"><path d="M0 -4L2.8 -2.8L4 0L2.8 2.8L0 4L-2.8 2.8L-4 0L-2.8 -2.8Z" stroke="#00e07f" fill="none" stroke-width="1.0"></path></g><g transform="translate(307 495)"><path d="M0 -6L4.2 -4.2L6 0L4.2 4.2L0 6L-4.2 4.2L-6 0L-4.2 -4.2Z" stroke="#00e07f" fill="none" stroke-width="1.0"></path></g><g transform="translate(449 240)"><path d="M0 -12L8.5 -8.5L12 0L8.5 8.5L0 12L-8.5 8.5L-12 0L-8.5 -8.5Z" stroke="#00e07f" fill="none" stroke-width="1.0"></path></g><g transform="translate(511 173)"><path d="M0 -3L2.1 -2.1L3 0L2.1 2.1L0 3L-2.1 2.1L-3 0L-2.1 -2.1Z" stroke="#00e07f" fill="none" stroke-width="1.0"></path></g><g transform="translate(513 579)"><path d="M0 -8L5.7 -5.7L8 0L5.7 5.7L0 8L-5.7 5.7L-8 0L-5.7 -5.7Z" stroke="#00e07f" fill="none" stroke-width="1.0"></path></g><g transform="translate(784 524)"><path d="M0 -18L12.7 -12.7L18 0L12.7 12.7L0 18L-12.7 12.7L-18 0L-12.7 -12.7Z" stroke="#00e07f" fill="none" stroke-width="1.0"></path></g><g transform="translate(425 594)"><path d="M0 -8L5.7 -5.7L8 0L5.7 5.7L0 8L-5.7 5.7L-8 0L-5.7 -5.7Z" stroke="#00e07f" fill="none" stroke-width="1.0"></path></g><g transform="translate(844 238)"><path d="M0 -13L9.2 -9.2L13 0L9.2 9.2L0 13L-9.2 9.2L-13 0L-9.2 -9.2Z" stroke="#00e07f" fill="none" stroke-width="1.0"></path></g><g transform="translate(449 465)"><path d="M0 -14L9.9 -9.9L14 0L9.9 9.9L0 14L-9.9 9.9L-14 0L-9.9 -9.9Z" stroke="#00e07f" fill="none" stroke-width="1.0"></path></g><g transform="translate(59 4)"><path d="M0 -9L6.4 -6.4L9 0L6.4 6.4L0 9L-6.4 6.4L-9 0L-6.4 -6.4Z" stroke="#00e07f" fill="none" stroke-width="1.0"></path></g><g transform="translate(3 543)"><path d="M0 -18L12.7 -12.7L18 0L12.7 12.7L0 18L-12.7 12.7L-18 0L-12.7 -12.7Z" stroke="#00e07f" fill="none" stroke-width="1.0"></path></g><g transform="translate(305 410)"><path d="M0 -9L6.4 -6.4L9 0L6.4 6.4L0 9L-6.4 6.4L-9 0L-6.4 -6.4Z" stroke="#00e07f" fill="none" stroke-width="1.0"></path></g><g transform="translate(659 18)"><path d="M0 -16L11.3 -11.3L16 0L11.3 11.3L0 16L-11.3 11.3L-16 0L-11.3 -11.3Z" stroke="#00e07f" fill="none" stroke-width="1.0"></path></g><g transform="translate(190 495)"><path d="M0 -9L6.4 -6.4L9 0L6.4 6.4L0 9L-6.4 6.4L-9 0L-6.4 -6.4Z" stroke="#00e07f" fill="none" stroke-width="1.0"></path></g><g transform="translate(61 545)"><path d="M0 -16L11.3 -11.3L16 0L11.3 11.3L0 16L-11.3 11.3L-16 0L-11.3 -11.3Z" stroke="#00e07f" fill="none" stroke-width="1.0"></path></g><g transform="translate(717 389)"><path d="M0 -6L4.2 -4.2L6 0L4.2 4.2L0 6L-4.2 4.2L-6 0L-4.2 -4.2Z" stroke="#00e07f" fill="none" stroke-width="1.0"></path></g><g transform="translate(759 201)"><path d="M0 -12L8.5 -8.5L12 0L8.5 8.5L0 12L-8.5 8.5L-12 0L-8.5 -8.5Z" stroke="#00e07f" fill="none" stroke-width="1.0"></path></g><g transform="translate(354 314)"><path d="M0 -16L11.3 -11.3L16 0L11.3 11.3L0 16L-11.3 11.3L-16 0L-11.3 -11.3Z" stroke="#00e07f" fill="none" stroke-width="1.0"></path></g><g transform="translate(218 282)"><path d="M0 -9L6.4 -6.4L9 0L6.4 6.4L0 9L-6.4 6.4L-9 0L-6.4 -6.4Z" stroke="#00e07f" fill="none" stroke-width="1.0"></path></g><g transform="translate(658 403)"><path d="M0 -4L2.8 -2.8L4 0L2.8 2.8L0 4L-2.8 2.8L-4 0L-2.8 -2.8Z" stroke="#00e07f" fill="none" stroke-width="1.0"></path></g><g transform="translate(229 148)"><path d="M0 -6L4.2 -4.2L6 0L4.2 4.2L0 6L-4.2 4.2L-6 0L-4.2 -4.2Z" stroke="#00e07f" fill="none" stroke-width="1.0"></path></g><g transform="translate(213 438)"><path d="M0 -4L2.8 -2.8L4 0L2.8 2.8L0 4L-2.8 2.8L-4 0L-2.8 -2.8Z" stroke="#00e07f" fill="none" stroke-width="1.0"></path></g><g transform="translate(61 320)"><path d="M0 -15L10.6 -10.6L15 0L10.6 10.6L0 15L-10.6 10.6L-15 0L-10.6 -10.6Z" stroke="#00e07f" fill="none" stroke-width="1.0"></path></g><g transform="translate(883 136)"><path d="M0 -2L1.4 -1.4L2 0L1.4 1.4L0 2L-1.4 1.4L-2 0L-1.4 -1.4Z" stroke="#00e07f" fill="none" stroke-width="1.0"></path></g><g transform="translate(404 276)"><path d="M0 -12L8.5 -8.5L12 0L8.5 8.5L0 12L-8.5 8.5L-12 0L-8.5 -8.5Z" stroke="#00e07f" fill="none" stroke-width="1.0"></path></g><g transform="translate(616 166)"><path d="M0 -16L11.3 -11.3L16 0L11.3 11.3L0 16L-11.3 11.3L-16 0L-11.3 -11.3Z" stroke="#00e07f" fill="none" stroke-width="1.0"></path></g><g transform="translate(136 370)"><path d="M0 -13L9.2 -9.2L13 0L9.2 9.2L0 13L-9.2 9.2L-13 0L-9.2 -9.2Z" stroke="#00e07f" fill="none" stroke-width="1.0"></path></g><g transform="translate(2 471)"><path d="M0 -3L2.1 -2.1L3 0L2.1 2.1L0 3L-2.1 2.1L-3 0L-2.1 -2.1Z" stroke="#00e07f" fill="none" stroke-width="1.0"></path></g><g transform="translate(272 129)"><path d="M0 -2L1.4 -1.4L2 0L1.4 1.4L0 2L-1.4 1.4L-2 0L-1.4 -1.4Z" stroke="#00e07f" fill="none" stroke-width="1.0"></path></g><g transform="translate(545 201)"><path d="M0 -9L6.4 -6.4L9 0L6.4 6.4L0 9L-6.4 6.4L-9 0L-6.4 -6.4Z" stroke="#00e07f" fill="none" stroke-width="1.0"></path></g><g transform="translate(539 332)"><path d="M0 -10L7.1 -7.1L10 0L7.1 7.1L0 10L-7.1 7.1L-10 0L-7.1 -7.1Z" stroke="#00e07f" fill="none" stroke-width="1.0"></path></g><g transform="translate(24 140)"><path d="M0 -11L7.8 -7.8L11 0L7.8 7.8L0 11L-7.8 7.8L-11 0L-7.8 -7.8Z" stroke="#00e07f" fill="none" stroke-width="1.0"></path></g></g></svg>