<svg id="visual" viewBox="0 0 960 540" width="960" height="540" xmlns="http://www.w3.org/2000/svg" xmlns:xlink="http://www.w3.org/1999/xlink" version="1.1"><rect x="0" y="0" width="960" height="540" fill="#040806"></rect><path d="M0 214L60 263L120 265L180 235L240 235L300 226L360 260L420 258L480 249L540 224L600 246L660 248L720 221L780 220L840 261L900 220L960 218L960 0L900 0L840 0L780 0L720 0L660 0L600 0L540 0L480 0L420 0L360 0L300 0L240 0L180 0L120 0L60 0L0 0Z" fill="#04663c"></path><path d="M0 204L60 176L120 200L180 239L240 205L300 224L360 199L420 192L480 223L540 237L600 184L660 206L720 213L780 197L840 237L900 178L960 208L960 0L900 0L840 0L780 0L720 0L660 0L600 0L540 0L480 0L420 0L360 0L300 0L240 0L180 0L120 0L60 0L0 0Z" fill="#037645"></path><path d="M0 194L60 183L120 198L180 183L240 161L300 185L360 177L420 189L480 196L540 154L600 160L660 206L720 165L780 198L840 171L900 191L960 185L960 0L900 0L840 0L780 0L720 0L660 0L600 0L540 0L480 0L420 0L360 0L300 0L240 0L180 0L120 0L60 0L0 0Z" fill="#01874f"></path><path d="M0 158L60 166L120 129L180 136L240 158L300 173L360 152L420 151L480 152L540 155L600 162L660 128L720 125L780 162L840 136L900 147L960 172L960 0L900 0L840 0L780 0L720 0L660 0L600 0L540 0L480 0L420 0L360 0L300 0L240 0L180 0L120 0L60 0L0 0Z" fill="#009858"></path><path d="M0 140L60 123L120 113L180 135L240 135L300 130L360 120L420 130L480 125L540 104L600 99L660 139L720 109L780 106L840 102L900 111L960 105L960 0L900 0L840 0L780 0L720 0L660 0L600 0L540 0L480 0L420 0L360 0L300 0L240 0L180 0L120 0L60 0L0 0Z" fill="#00aa62"></path><path d="M0 80L60 110L120 75L180 81L240 90L300 81L360 100L420 94L480 78L540 80L600 84L660 78L720 79L780 94L840 89L900 105L960 99L960 0L900 0L840 0L780 0L720 0L660 0L600 0L540 0L480 0L420 0L360 0L300 0L240 0L180 0L120 0L60 0L0 0Z" fill="#00bc6b"></path><path d="M0 63L60 80L120 49L180 72L240 71L300 70L360 69L420 65L480 58L540 80L600 76L660 59L720 59L780 71L840 54L900 57L960 57L960 0L900 0L840 0L780 0L720 0L660 0L600 0L540 0L480 0L420 0L360 0L300 0L240 0L180 0L120 0L60 0L0 0Z" fill="#00ce75"></path><path d="M0 21L60 39L120 36L180 46L240 21L300 24L360 45L420 37L480 43L540 49L600 30L660 21L720 26L780 33L840 37L900 33L960 32L960 0L900 0L840 0L780 0L720 0L660 0L600 0L540 0L480 0L420 0L360 0L300 0L240 0L180 0L120 0L60 0L0 0Z" fill="#00e07f"></path></svg>