<svg id="visual" viewBox="0 0 900 450" width="900" height="450" xmlns="http://www.w3.org/2000/svg" xmlns:xlink="http://www.w3.org/1999/xlink" version="1.1"><rect x="0" y="0" width="900" height="450" fill="#040806"></rect><path d="M0 297L39 317L78 312L117 295L157 297L196 295L235 298L274 313L313 315L352 293L391 313L430 306L470 315L509 298L548 298L587 308L626 319L665 309L704 294L743 318L783 323L822 307L861 295L900 302L900 451L861 451L822 451L783 451L743 451L704 451L665 451L626 451L587 451L548 451L509 451L470 451L430 451L391 451L352 451L313 451L274 451L235 451L196 451L157 451L117 451L78 451L39 451L0 451Z" fill="#04663c"></path><path d="M0 315L39 339L78 338L117 333L157 328L196 316L235 323L274 332L313 321L352 322L391 314L430 337L470 336L509 329L548 332L587 316L626 310L665 331L704 334L743 332L783 316L822 321L861 316L900 324L900 451L861 451L822 451L783 451L743 451L704 451L665 451L626 451L587 451L548 451L509 451L470 451L430 451L391 451L352 451L313 451L274 451L235 451L196 451L157 451L117 451L78 451L39 451L0 451Z" fill="#037444"></path><path d="M0 341L39 332L78 329L117 339L157 342L196 351L235 341L274 352L313 338L352 350L391 349L430 340L470 337L509 337L548 340L587 325L626 335L665 347L704 328L743 352L783 333L822 338L861 337L900 331L900 451L861 451L822 451L783 451L743 451L704 451L665 451L626 451L587 451L548 451L509 451L470 451L430 451L391 451L352 451L313 451L274 451L235 451L196 451L157 451L117 451L78 451L39 451L0 451Z" fill="#02834c"></path><path d="M0 357L39 356L78 348L117 362L157 360L196 343L235 359L274 365L313 350L352 358L391 354L430 359L470 347L509 354L548 350L587 361L626 342L665 360L704 341L743 352L783 353L822 365L861 350L900 344L900 451L861 451L822 451L783 451L743 451L704 451L665 451L626 451L587 451L548 451L509 451L470 451L430 451L391 451L352 451L313 451L274 451L235 451L196 451L157 451L117 451L78 451L39 451L0 451Z" fill="#019255"></path><path d="M0 377L39 369L78 376L117 378L157 364L196 361L235 361L274 377L313 361L352 366L391 362L430 357L470 358L509 370L548 367L587 363L626 371L665 369L704 363L743 358L783 365L822 368L861 359L900 360L900 451L861 451L822 451L783 451L743 451L704 451L665 451L626 451L587 451L548 451L509 451L470 451L430 451L391 451L352 451L313 451L274 451L235 451L196 451L157 451L117 451L78 451L39 451L0 451Z" fill="#00a15d"></path><path d="M0 390L39 385L78 389L117 375L157 392L196 391L235 385L274 383L313 383L352 380L391 391L430 377L470 380L509 378L548 385L587 391L626 390L665 381L704 381L743 386L783 390L822 375L861 375L900 389L900 451L861 451L822 451L783 451L743 451L704 451L665 451L626 451L587 451L548 451L509 451L470 451L430 451L391 451L352 451L313 451L274 451L235 451L196 451L157 451L117 451L78 451L39 451L0 451Z" fill="#00b065"></path><path d="M0 395L39 395L78 401L117 392L157 403L196 394L235 403L274 395L313 390L352 396L391 405L430 395L470 395L509 397L548 405L587 401L626 397L665 402L704 394L743 397L783 391L822 402L861 395L900 396L900 451L861 451L822 451L783 451L743 451L704 451L665 451L626 451L587 451L548 451L509 451L470 451L430 451L391 451L352 451L313 451L274 451L235 451L196 451L157 451L117 451L78 451L39 451L0 451Z" fill="#00c06e"></path><path d="M0 407L39 409L78 416L117 407L157 416L196 410L235 407L274 414L313 417L352 412L391 406L430 414L470 407L509 409L548 416L587 407L626 409L665 414L704 412L743 416L783 408L822 416L861 411L900 408L900 451L861 451L822 451L783 451L743 451L704 451L665 451L626 451L587 451L548 451L509 451L470 451L430 451L391 451L352 451L313 451L274 451L235 451L196 451L157 451L117 451L78 451L39 451L0 451Z" fill="#00d076"></path><path d="M0 429L39 428L78 428L117 430L157 425L196 422L235 428L274 428L313 426L352 428L391 427L430 427L470 423L509 426L548 430L587 425L626 427L665 429L704 425L743 427L783 425L822 425L861 427L900 427L900 451L861 451L822 451L783 451L743 451L704 451L665 451L626 451L587 451L548 451L509 451L470 451L430 451L391 451L352 451L313 451L274 451L235 451L196 451L157 451L117 451L78 451L39 451L0 451Z" fill="#00e07f"></path></svg>